<?xml version="1.0" encoding="utf-8"?>
<!-- Generator: Adobe Illustrator 27.5.0, SVG Export Plug-In . SVG Version: 6.00 Build 0)  -->
<svg version="1.1" id="BASE" xmlns="http://www.w3.org/2000/svg" xmlns:xlink="http://www.w3.org/1999/xlink" x="0px" y="0px"
	 viewBox="0 0 2122 2122" style="enable-background:new 0 0 2122 2122;" xml:space="preserve">
<g>
	<path style="fill:#ECB842;" d="M1936.538,1352.14l-420.486-200.64l-53.809-129.52l0.004-0.002l-0.004-0.009
		c0,0,0.001-0.001,0.003-0.002l-61.383-147.766c-0.004,0.002-0.006,0.003-0.01,0.005l-0.002-0.006
		c-0.001,0.001-0.001,0.001-0.003,0.002l-97.181-233.914l0.001,0l-49.103-118.19l-103.451-249.007
		c-22.285-53.644-80.345-71.634-126.575-53.847c-23.176,8.913-43.394,26.822-54.617,53.726l-366.68,879.505l-418.46,199.668
		c-28.929,13.776-43.354,31.847-43.354,49.917v68.069c0,18.071,14.465,36.142,43.354,49.917l771.203,367.976
		c57.818,27.592,151.533,27.592,209.351,0l403.429-192.497l367.774-175.479c28.889-13.776,43.354-31.847,43.354-49.917v-68.069
		C1979.893,1383.987,1965.428,1365.916,1936.538,1352.14z"/>
	<g>
		<path style="fill:#F0CD43;" d="M1592.479,1329.192c-0.212-0.689-0.43-1.377-0.653-2.064c-0.017-0.049-0.033-0.099-0.05-0.149
			c-0.208-0.64-0.422-1.279-0.64-1.918c-0.018-0.055-0.037-0.111-0.057-0.166c-0.221-0.644-0.446-1.286-0.676-1.929
			c-0.011-0.031-0.022-0.062-0.034-0.094c-2.76-7.682-6.208-15.249-10.324-22.681c-0.074-0.132-0.149-0.265-0.222-0.398
			c-0.224-0.401-0.451-0.801-0.677-1.201c-0.226-0.398-0.455-0.796-0.687-1.194c-0.119-0.208-0.24-0.416-0.362-0.623
			c-0.077-0.131-0.154-0.261-0.23-0.392c-0.068-0.116-0.137-0.233-0.206-0.349c0,0,0-0.001-0.001-0.001
			c-0.339-0.574-0.678-1.148-1.026-1.72c-0.173-0.283-0.348-0.566-0.524-0.849c-0.051-0.083-0.102-0.167-0.153-0.25
			c-0.039-0.063-0.078-0.125-0.117-0.188c-0.329-0.531-0.66-1.063-0.996-1.593c-0.021-0.032-0.04-0.064-0.061-0.096
			c-0.024-0.039-0.05-0.078-0.074-0.118c-0.062-0.098-0.123-0.195-0.185-0.293c-0.206-0.323-0.414-0.646-0.623-0.968l-0.387-0.596
			c-0.166-0.253-0.328-0.508-0.494-0.761l-21.711-52.26l-10.166-24.469c-0.001,0.002-0.002,0.003-0.004,0.005
			c0,0.001,0,0.001-0.001,0.001l-0.005-0.012c-0.277,0.4-0.558,0.799-0.839,1.197c-1.398,1.957-2.831,3.913-4.379,5.87
			c-0.016,0.021-0.033,0.042-0.05,0.063c-0.038,0.048-0.077,0.096-0.114,0.144c-1.848,2.334-3.793,4.666-5.832,6.995
			c-5.127,5.855-10.853,11.684-17.156,17.449c-7.31,6.686-15.397,13.286-24.228,19.74c-0.031,0.023-0.064,0.047-0.097,0.071
			c-0.017,0.013-0.037,0.026-0.055,0.04c-7.069,5.159-14.613,10.223-22.613,15.162c-40.557,25.121-92.663,46.96-152.79,63.207
			c0.002,0.007,0.004,0.014,0.005,0.021c-0.001,0-0.002,0.001-0.005,0.001c-15.964-61.61-32.34-124.847-48.841-188.617
			c-5.292-20.45-10.597-40.954-15.905-61.477c-0.203-0.787-0.407-1.575-0.61-2.363c9.908-1.721,19.693-3.575,29.348-5.559
			c22.161-4.556,43.635-9.796,64.333-15.68c14.354-4.081,28.336-8.47,41.91-13.16c0.029-0.01,0.06-0.02,0.089-0.03
			c0.003-0.001,0.006-0.002,0.009-0.003c11.054-3.816,21.839-7.827,32.339-12.029c7.109-2.854,14.079-5.802,20.912-8.836
			c8.788-3.891,17.351-7.925,25.681-12.099l0.004-0.002l-0.004-0.009c0,0,0.001-0.001,0.003-0.002l-61.383-147.766
			c-0.004,0.002-0.006,0.003-0.01,0.005l-0.002-0.006c-0.001,0.001-0.001,0.001-0.003,0.002c-30,12.727-63.445,23.935-99.628,33.128
			c-3.164,0.803-6.347,1.593-9.551,2.365c-27.349,6.604-56.157,12.074-86.221,16.287c0.001,0.007,0.004,0.013,0.005,0.019
			c-0.005,0.001-0.011,0.002-0.016,0.003c-23.13-89.58-45.829-177.647-67.293-261.133c48.452-3.291,94.982-9.629,138.828-18.639
			c4.069-0.837,8.106-1.706,12.119-2.597c4.889-1.083,9.743-2.204,14.57-3.339l-0.004-0.007c0.004-0.001,0.007-0.002,0.01-0.002
			l0.001,0l-49.103-118.19l-16.161-38.897c-25.774,4.55-52.562,8.146-80.158,10.688c-0.357,0.032-0.715,0.065-1.072,0.097
			c-1.269,0.115-2.541,0.228-3.814,0.339c-0.629,0.054-1.257,0.11-1.885,0.164c-0.893,0.076-1.787,0.15-2.681,0.224
			c-17.539,1.448-35.393,2.474-53.513,3.045c0.001,0.006,0.002,0.01,0.005,0.016c-0.005,0-0.01,0-0.015,0
			c-28.243-110.351-52.656-206.377-70.732-278.531c-23.176,8.913-43.394,26.822-54.617,53.726l-366.68,879.505l-418.46,199.668
			c-28.929,13.776-43.354,31.847-43.354,49.917c0,18.071,14.425,36.182,43.354,49.958l771.203,367.977
			c57.818,27.592,151.533,27.592,209.351,0l241.767-115.353c-5.156-19.899-10.489-40.429-15.969-61.524
			c-93.303,32.434-207.343,51.502-330.479,51.502c-315.636,0-571.509-125.284-571.509-279.831c0-42.728,19.56-83.219,54.532-119.443
			l-0.861,2.066c-2.41,4.16-4.609,8.363-6.596,12.605c-0.052,0.112-0.106,0.224-0.16,0.337c-0.24,0.517-0.477,1.034-0.711,1.552
			c-0.202,0.448-0.402,0.896-0.599,1.344c-0.19,0.429-0.375,0.859-0.56,1.289c-0.174,0.406-0.347,0.812-0.518,1.219
			c-7.162,17.004-10.935,34.611-10.935,52.633c0,144.363,240.834,261.376,537.905,261.376c117.338,0,225.882-18.232,314.25-49.228
			c-6.644-25.592-13.46-51.855-20.418-78.676c9.234-2.793,18.303-5.718,27.199-8.77c0.138-0.047,0.274-0.094,0.412-0.141
			c0.928-0.319,1.854-0.64,2.779-0.962c0.578-0.201,1.152-0.401,1.729-0.603c0.538-0.189,1.077-0.379,1.614-0.569
			c1.044-0.368,2.085-0.738,3.124-1.11c0.12-0.043,0.242-0.087,0.364-0.13c8.139-2.919,16.127-5.944,23.957-9.075
			c12.074-4.848,23.772-9.954,35.068-15.308c18.163-8.597,35.282-17.837,51.247-27.706c27.074-16.764,50.901-35.315,70.695-55.821
			c8.581-8.885,16.408-18.14,23.414-27.78c0.106-0.154,0.212-0.308,0.317-0.462c0.348-0.494,0.687-0.993,1.038-1.487
			C1596.443,1344.26,1594.784,1336.674,1592.479,1329.192z"/>
	</g>
	<g>
		<path style="fill:#343432;" d="M1592.479,1329.192c-0.212-0.689-0.43-1.377-0.653-2.064c-0.017-0.049-0.033-0.099-0.05-0.149
			c-0.208-0.64-0.422-1.279-0.64-1.918c-0.018-0.055-0.037-0.111-0.057-0.166c-0.221-0.644-0.446-1.286-0.676-1.929
			c-0.011-0.031-0.022-0.062-0.034-0.094c-2.76-7.682-6.208-15.249-10.324-22.681c-0.074-0.132-0.149-0.265-0.222-0.398
			c-0.224-0.401-0.451-0.801-0.677-1.201c-0.226-0.398-0.455-0.796-0.687-1.194c-0.119-0.208-0.24-0.416-0.362-0.623
			c-0.077-0.131-0.154-0.261-0.23-0.392c-0.068-0.116-0.137-0.233-0.206-0.349c0,0,0-0.001-0.001-0.001
			c-0.339-0.574-0.678-1.148-1.026-1.72c-0.173-0.283-0.348-0.566-0.524-0.849c-0.051-0.083-0.102-0.167-0.153-0.25
			c-0.039-0.063-0.078-0.125-0.117-0.188c-0.329-0.531-0.66-1.063-0.996-1.593c-0.021-0.032-0.04-0.064-0.061-0.096
			c-0.024-0.039-0.05-0.078-0.074-0.118c-0.062-0.098-0.123-0.195-0.185-0.293c-0.206-0.323-0.414-0.646-0.623-0.968l-0.387-0.596
			c-0.166-0.253-0.328-0.508-0.494-0.761l-21.711-52.26l-10.166-24.469c-0.001,0.002-0.002,0.003-0.004,0.005
			c0,0.001,0,0.001-0.001,0.001l-0.005-0.012c-0.277,0.4-0.558,0.799-0.839,1.197c-1.398,1.957-2.831,3.913-4.379,5.87
			c-0.016,0.021-0.033,0.042-0.05,0.063c-0.038,0.048-0.077,0.096-0.114,0.144c-1.848,2.334-3.793,4.666-5.832,6.995
			c-5.127,5.855-10.853,11.684-17.156,17.449c-7.31,6.686-15.397,13.286-24.228,19.74c-0.031,0.023-0.064,0.047-0.097,0.071
			c-0.017,0.013-0.037,0.026-0.055,0.04c-7.069,5.159-14.613,10.223-22.613,15.162c-40.557,25.121-92.663,46.96-152.79,63.207
			c0.002,0.007,0.004,0.014,0.005,0.021c-0.001,0-0.002,0.001-0.005,0.001c-6.995,1.892-14.097,3.71-21.303,5.448
			c-69.158,16.708-147.759,26.22-231.037,26.213c-63.442,0.001-124.166-5.512-180.074-15.535
			c-83.854-14.994-156.895-40.299-211.708-71.462c-23.698-13.444-43.959-27.953-60.308-42.909c-2.562-2.344-5.031-4.699-7.399-7.063
			c-3.464-3.453-6.71-6.92-9.75-10.394c-4.573-5.228-8.673-10.472-12.304-15.711c-0.002-0.004-0.006-0.008-0.009-0.011l-11.24,26.96
			l-24.172,57.977l-0.861,2.066c-2.41,4.16-4.609,8.363-6.596,12.605c-0.052,0.112-0.106,0.224-0.16,0.337
			c-0.24,0.517-0.477,1.034-0.711,1.552c-0.202,0.448-0.402,0.896-0.599,1.344c-5.543,12.57-9.223,25.476-10.913,38.645
			c2.999,4.23,6.156,8.39,9.47,12.473c22.816,28.074,52.762,52.775,88.211,74.45c53.206,32.461,118.991,58.182,193.497,76.066
			c74.501,17.85,157.734,27.765,245.628,27.771c76.541-0.003,149.551-7.527,216.332-21.25c26.9-5.53,52.787-12.067,77.5-19.541
			c9.234-2.793,18.303-5.718,27.199-8.77c0.138-0.047,0.274-0.094,0.412-0.141c0.928-0.319,1.854-0.64,2.779-0.962
			c0.578-0.201,1.152-0.401,1.729-0.603c0.538-0.189,1.077-0.379,1.614-0.569c1.044-0.368,2.085-0.738,3.124-1.11
			c0.12-0.043,0.242-0.087,0.364-0.13c8.139-2.919,16.127-5.944,23.957-9.075c12.074-4.848,23.772-9.954,35.068-15.308
			c18.163-8.597,35.282-17.837,51.247-27.706c27.074-16.764,50.901-35.315,70.695-55.821c8.581-8.885,16.408-18.14,23.414-27.78
			c0.106-0.154,0.212-0.308,0.317-0.462c0.348-0.494,0.687-0.993,1.038-1.487C1596.443,1344.26,1594.784,1336.674,1592.479,1329.192
			z"/>
		<path style="fill:#343432;" d="M815.013,1077.295c20.022,4.797,40.674,9.02,61.878,12.632
			c57.696,9.83,119.476,15.134,183.75,15.139c64.288-0.002,126.084-5.312,183.791-15.143c1.066-0.182,2.129-0.364,3.192-0.549
			c9.908-1.721,19.693-3.575,29.348-5.559c22.161-4.556,43.635-9.796,64.333-15.68c14.354-4.081,28.336-8.47,41.91-13.16
			c0.029-0.01,0.06-0.02,0.089-0.03c0.003-0.001,0.006-0.002,0.009-0.003c11.054-3.816,21.839-7.827,32.339-12.029
			c7.109-2.854,14.079-5.802,20.912-8.836c8.788-3.891,17.351-7.925,25.681-12.099l0.004-0.002l-0.004-0.009
			c0,0,0.001-0.001,0.003-0.002l-61.383-147.766c-0.004,0.002-0.006,0.003-0.01,0.005l-0.002-0.006
			c-0.001,0.001-0.001,0.001-0.003,0.002c-30,12.727-63.445,23.935-99.628,33.128c-3.164,0.803-6.347,1.593-9.551,2.365
			c-27.349,6.604-56.157,12.074-86.221,16.287c0.001,0.007,0.004,0.013,0.005,0.019c-0.005,0.001-0.011,0.002-0.016,0.003
			c-45.857,6.435-94.472,9.908-144.797,9.904c-63.442,0.001-124.166-5.511-180.074-15.535
			c-60.213-10.766-114.803-26.87-161.119-46.621l-61.544,147.616c36.458,18.382,77.46,34.066,122.104,46.763
			C791.442,1071.383,803.115,1074.439,815.013,1077.295z"/>
		<path style="fill:#343432;" d="M1138.144,664.87c48.452-3.291,94.982-9.629,138.828-18.639c4.069-0.837,8.106-1.706,12.119-2.597
			c4.889-1.083,9.743-2.204,14.57-3.339l-0.004-0.007c0.004-0.001,0.007-0.002,0.01-0.002l0.001,0l-49.103-118.19l-16.161-38.897
			c-25.774,4.55-52.562,8.146-80.158,10.688c-0.357,0.032-0.715,0.065-1.072,0.097c-1.269,0.115-2.541,0.228-3.814,0.339
			c-0.629,0.054-1.257,0.11-1.885,0.164c-0.893,0.076-1.787,0.15-2.681,0.224c-17.539,1.448-35.393,2.474-53.513,3.045
			c0.001,0.006,0.002,0.01,0.005,0.016c-0.005,0-0.01,0-0.015,0c-11.444,0.365-22.992,0.551-34.632,0.55
			c-62.784,0.001-122.887-5.414-178.314-15.24l-65.479,157.052c74.035,17.575,156.615,27.34,243.793,27.346
			C1086.927,667.48,1112.798,666.591,1138.144,664.87z"/>
	</g>
	<path style="fill:#171814;" d="M1276.961,646.211c4.074-0.822,8.115-1.687,12.13-2.577c4.889-1.083,9.743-2.204,14.57-3.339
		l-0.004-0.007l-65.268-157.078c-25.769,4.55-52.55,8.14-80.142,10.676c-0.357,0.032-0.715,0.065-1.072,0.097
		c-1.269,0.115-2.541,0.228-3.814,0.339c-0.629,0.054-1.257,0.11-1.885,0.164c-0.893,0.076-1.787,0.15-2.681,0.224
		c-17.539,1.448-35.393,2.474-53.513,3.045c0.001,0.006,0.002,0.01,0.005,0.016c13.491,52.749,27.873,108.818,42.863,167.076
		C1186.607,661.567,1233.121,655.246,1276.961,646.211z"/>
	<path style="fill:#171814;" d="M1301.22,907.329c-3.164,0.803-6.347,1.593-9.551,2.365c-27.349,6.604-56.157,12.074-86.221,16.287
		c0.001,0.007,0.004,0.013,0.005,0.019c7.536,29.288,15.151,58.697,22.766,88.187c6.443,24.999,12.926,50.12,19.408,75.159
		c9.927-1.701,19.692-3.565,29.335-5.551c22.156-4.553,43.629-9.789,64.326-15.668c14.36-4.078,28.346-8.466,41.927-13.151
		c0.029-0.01,0.06-0.02,0.089-0.03c0.003-0.001,0.006-0.002,0.009-0.003c11.054-3.816,21.839-7.827,32.339-12.029
		c7.109-2.854,14.079-5.802,20.912-8.836c8.781-3.899,17.337-7.94,25.676-12.109c0.003,0,0.004-0.001,0.005-0.001
		c0,0,0.001-0.001,0.003-0.002l-61.383-147.766c-0.004,0.002-0.006,0.003-0.01,0.005c0,0-0.002,0-0.002,0.001
		C1370.859,886.946,1337.406,898.144,1301.22,907.329z"/>
	<path style="fill:#171814;" d="M1381.672,1493.089c0.138-0.047,0.274-0.094,0.412-0.141c0.928-0.319,1.854-0.64,2.779-0.962
		c0.578-0.201,1.152-0.401,1.729-0.603c0.538-0.189,1.077-0.379,1.614-0.569c1.044-0.368,2.085-0.738,3.124-1.11
		c0.12-0.043,0.242-0.087,0.364-0.13c8.139-2.919,16.127-5.944,23.957-9.075c12.074-4.848,23.772-9.954,35.068-15.308
		c18.157-8.606,35.274-17.855,51.235-27.721c27.08-16.762,50.906-35.301,70.707-55.806c8.581-8.885,16.408-18.14,23.414-27.78
		c0.106-0.154,0.212-0.308,0.317-0.462c0.341-0.494,0.681-0.989,1.019-1.483c-0.977-7.677-2.63-15.263-4.932-22.746
		c-0.212-0.689-0.43-1.377-0.653-2.064c-0.017-0.049-0.033-0.099-0.05-0.149c-0.208-0.64-0.422-1.279-0.64-1.918
		c-0.018-0.055-0.037-0.111-0.057-0.166c-0.221-0.644-0.446-1.286-0.676-1.929c-0.011-0.031-0.022-0.062-0.034-0.094
		c-2.76-7.682-6.208-15.249-10.324-22.681c-0.074-0.132-0.149-0.265-0.222-0.398c-0.224-0.401-0.451-0.801-0.677-1.201
		c-0.226-0.398-0.455-0.796-0.687-1.194c-0.119-0.208-0.24-0.416-0.362-0.623c-0.077-0.131-0.154-0.261-0.23-0.392
		c-0.068-0.116-0.137-0.233-0.206-0.349c0,0,0-0.001-0.001-0.001c-0.339-0.574-0.678-1.148-1.026-1.72
		c-0.173-0.283-0.348-0.566-0.524-0.849c-0.051-0.083-0.102-0.167-0.153-0.25c-0.039-0.063-0.078-0.125-0.117-0.188
		c-0.329-0.531-0.66-1.063-0.996-1.593c-0.021-0.032-0.04-0.064-0.061-0.096c-0.024-0.039-0.05-0.078-0.074-0.118
		c-0.067-0.106-0.134-0.213-0.202-0.318c-0.176-0.276-0.353-0.551-0.531-0.827c-0.316-0.49-0.633-0.98-0.956-1.469l-21.717-52.267
		l-10.165-24.46l-0.005-0.012c-0.277,0.4-0.558,0.799-0.839,1.197c-1.382,1.961-2.812,3.902-4.379,5.87
		c-0.016,0.021-0.033,0.042-0.05,0.063c-0.038,0.048-0.077,0.096-0.114,0.144c-1.846,2.335-3.79,4.668-5.827,6.996
		c-5.124,5.856-10.85,11.685-17.156,17.451c-7.312,6.686-15.401,13.285-24.233,19.736c-0.031,0.023-0.064,0.047-0.097,0.071
		c-0.017,0.013-0.037,0.026-0.055,0.04c-7.069,5.159-14.613,10.223-22.613,15.162c-40.557,25.121-92.663,46.96-152.79,63.207
		c0.002,0.007,0.004,0.014,0.005,0.021c14.22,54.893,28.116,108.49,41.485,160.021
		C1363.708,1499.059,1372.776,1496.136,1381.672,1493.089z"/>
</g>
</svg>
